<?xml version="1.0" encoding="UTF-8" standalone="no"?>
<!-- Created with Inkscape (http://www.inkscape.org/) -->

<svg
   width="512"
   height="512"
   viewBox="0 0 135.46667 135.46667"
   version="1.1"
   id="svg1"
   xml:space="preserve"
   sodipodi:docname="logo.svg"
   inkscape:version="1.4.3 (0d15f75, 2025-12-25)"
   xmlns:inkscape="http://www.inkscape.org/namespaces/inkscape"
   xmlns:sodipodi="http://sodipodi.sourceforge.net/DTD/sodipodi-0.dtd"
   xmlns:xlink="http://www.w3.org/1999/xlink"
   xmlns="http://www.w3.org/2000/svg"
   xmlns:svg="http://www.w3.org/2000/svg"><sodipodi:namedview
     id="namedview1"
     pagecolor="#ffffff"
     bordercolor="#666666"
     borderopacity="1.0"
     inkscape:showpageshadow="2"
     inkscape:pageopacity="0.0"
     inkscape:pagecheckerboard="0"
     inkscape:deskcolor="#d1d1d1"
     inkscape:document-units="mm"
     inkscape:zoom="0.64"
     inkscape:cx="341.40625"
     inkscape:cy="758.59375"
     inkscape:window-width="1535"
     inkscape:window-height="1670"
     inkscape:window-x="0"
     inkscape:window-y="30"
     inkscape:window-maximized="0"
     inkscape:current-layer="layer1" /><defs
     id="defs1"><linearGradient
       id="linearGradient15"
       inkscape:collect="always"><stop
         style="stop-color:#fdc445;stop-opacity:1;"
         offset="0"
         id="stop16" /><stop
         style="stop-color:#fc4a19;stop-opacity:1;"
         offset="1"
         id="stop17" /></linearGradient><linearGradient
       id="linearGradient4"><stop
         style="stop-color:#fd6b05;stop-opacity:1;"
         offset="0"
         id="stop14" /><stop
         style="stop-color:#fd4774;stop-opacity:1;"
         offset="1"
         id="stop15" /></linearGradient><linearGradient
       id="linearGradient4-4"><stop
         style="stop-color:#fd6b05;stop-opacity:1;"
         offset="0"
         id="stop12" /><stop
         style="stop-color:#67b328;stop-opacity:1;"
         offset="1"
         id="stop13" /></linearGradient><linearGradient
       id="linearGradient4-1"><stop
         style="stop-color:#67b328;stop-opacity:1;"
         offset="0"
         id="stop10" /><stop
         style="stop-color:#fd4774;stop-opacity:1;"
         offset="1"
         id="stop11" /></linearGradient><linearGradient
       id="linearGradient4-3"><stop
         style="stop-color:#fd6b05;stop-opacity:1;"
         offset="0"
         id="stop7" /><stop
         style="stop-color:#7119bb;stop-opacity:1;"
         offset="1"
         id="stop8" /></linearGradient><linearGradient
       id="linearGradient4-2"><stop
         style="stop-color:#7119bb;stop-opacity:1;"
         offset="0"
         id="stop4" /><stop
         style="stop-color:#67b328;stop-opacity:1;"
         offset="1"
         id="stop5" /></linearGradient><linearGradient
       inkscape:collect="always"
       xlink:href="#linearGradient4"
       id="linearGradient5"
       x1="26.289533"
       y1="42.45872"
       x2="81.426712"
       y2="42.45872"
       gradientUnits="userSpaceOnUse"
       gradientTransform="translate(-1.5875,4.2333335)" /><linearGradient
       inkscape:collect="always"
       xlink:href="#linearGradient4-2"
       id="linearGradient8"
       gradientUnits="userSpaceOnUse"
       x1="42.301861"
       y1="47.194706"
       x2="67.809601"
       y2="28.220213"
       gradientTransform="translate(28.178124,47.274436)" /><linearGradient
       inkscape:collect="always"
       xlink:href="#linearGradient4-1"
       id="linearGradient9"
       gradientUnits="userSpaceOnUse"
       gradientTransform="translate(43.474348,5.5198775)"
       x1="55.869106"
       y1="51.236401"
       x2="42.538227"
       y2="36.211372" /><linearGradient
       inkscape:collect="always"
       xlink:href="#linearGradient4-3"
       id="linearGradient10"
       gradientUnits="userSpaceOnUse"
       gradientTransform="translate(-23.084897,47.274434)"
       x1="58.150368"
       y1="24.716425"
       x2="73.194626"
       y2="48.630409" /><linearGradient
       inkscape:collect="always"
       xlink:href="#linearGradient4-4"
       id="linearGradient11"
       gradientUnits="userSpaceOnUse"
       gradientTransform="translate(132.24537,26.548777)"
       x1="-92.269524"
       y1="35.077847"
       x2="-37.199978"
       y2="40.038784" /><radialGradient
       inkscape:collect="always"
       xlink:href="#linearGradient15"
       id="radialGradient17"
       cx="67.73333"
       cy="254.66146"
       fx="67.73333"
       fy="254.66146"
       r="67.73333"
       gradientTransform="matrix(1,0,0,0.86669925,7.1207682e-6,-161.59706)"
       gradientUnits="userSpaceOnUse" /><filter
       style="color-interpolation-filters:sRGB;"
       inkscape:label="Drop Shadow"
       id="filter36"
       x="-0.12245942"
       y="-0.13476724"
       width="1.2817372"
       height="1.3100533"><feFlood
         result="flood"
         in="SourceGraphic"
         flood-opacity="0.498039"
         flood-color="rgb(0,0,0)"
         id="feFlood35" /><feGaussianBlur
         result="blur"
         in="SourceGraphic"
         stdDeviation="2.000000"
         id="feGaussianBlur35" /><feOffset
         result="offset"
         in="blur"
         dx="2.000000"
         dy="2.000000"
         id="feOffset35" /><feComposite
         result="comp1"
         operator="in"
         in="flood"
         in2="offset"
         id="feComposite35" /><feComposite
         result="fbSourceGraphic"
         operator="over"
         in="SourceGraphic"
         in2="comp1"
         id="feComposite36" /><feColorMatrix
         result="fbSourceGraphicAlpha"
         in="fbSourceGraphic"
         values="0 0 0 -1 0 0 0 0 -1 0 0 0 0 -1 0 0 0 0 1 0"
         id="feColorMatrix36" /><feFlood
         id="feFlood36"
         result="flood"
         in="fbSourceGraphic"
         flood-opacity="0.498039"
         flood-color="rgb(0,0,0)" /><feGaussianBlur
         id="feGaussianBlur36"
         result="blur"
         in="fbSourceGraphic"
         stdDeviation="2.000000" /><feOffset
         id="feOffset36"
         result="offset"
         in="blur"
         dx="2.000000"
         dy="2.000000" /><feComposite
         id="feComposite37"
         result="comp1"
         operator="in"
         in="flood"
         in2="offset" /><feComposite
         id="feComposite38"
         result="comp2"
         operator="over"
         in="fbSourceGraphic"
         in2="comp1" /></filter></defs><g
     inkscape:label="Layer 1"
     inkscape:groupmode="layer"
     id="layer1"><rect
       style="opacity:1;fill:url(#radialGradient17);fill-rule:evenodd;stroke:none;stroke-width:0.4233335;stroke-linecap:butt;stroke-linejoin:miter;stroke-dasharray:none"
       id="rect15"
       width="135.46666"
       height="135.05325"
       x="7.1207683e-06"
       y="0.41341084" /><path
       id="path17"
       style="fill:#010101;fill-rule:evenodd;stroke:#fffffe;stroke-width:7.40833;stroke-linejoin:round;stroke-dasharray:none;stroke-opacity:1;filter:url(#filter36)"
       d="m 77.432482,18.054715 a 13.392963,13.392963 0 0 0 -13.392981,13.392981 13.392963,13.392963 0 0 0 0.482658,3.56309 C 54.981414,41.21577 45.447651,46.887027 35.921321,52.026284 a 13.392963,13.392963 0 0 0 -9.338448,-3.792533 13.392963,13.392963 0 0 0 -13.392981,13.392981 13.392963,13.392963 0 0 0 13.392981,13.392981 13.392963,13.392963 0 0 0 4.371826,-0.733805 c 2.210068,3.651441 4.16308,7.50326 6.426481,11.459248 2.649371,4.63059 5.806356,9.372586 10.309448,13.66893 a 13.392963,13.392963 0 0 0 -0.600997,3.967224 13.392963,13.392963 0 0 0 13.392981,13.39298 13.392963,13.392963 0 0 0 13.392981,-13.39298 13.392963,13.392963 0 0 0 -0.532267,-3.738807 C 82.473758,92.328918 90.375975,83.818292 100.74888,77.552892 a 13.392963,13.392963 0 0 0 7.68945,2.427758 13.392963,13.392963 0 0 0 13.39298,-13.392981 13.392963,13.392963 0 0 0 -13.39298,-13.39298 13.392963,13.392963 0 0 0 -4.83123,0.901753 C 98.428129,48.627261 93.066592,43.975253 88.472635,39.029662 A 13.392963,13.392963 0 0 0 90.825463,31.447696 13.392963,13.392963 0 0 0 77.432482,18.054715 Z m -8.193815,23.987166 a 13.392963,13.392963 0 0 0 8.193815,2.798795 13.392963,13.392963 0 0 0 4.108276,-0.645955 c 4.949138,5.578236 10.443036,10.321437 15.457455,15.429032 a 13.392963,13.392963 0 0 0 -1.483114,3.447852 C 79.533455,63.230715 58.852558,61.330127 40.568065,59.137995 50.132111,53.955699 59.688508,48.256681 69.238667,42.041881 Z M 38.643118,67.451183 c 18.077708,2.224348 38.619447,4.235701 55.504106,4.135665 -10.269949,6.50428 -17.991078,14.501243 -25.761735,20.981665 a 13.392963,13.392963 0 0 0 -7.902877,-2.580205 13.392963,13.392963 0 0 0 -7.824328,2.523361 C 49.388727,89.205961 47.018762,85.53899 44.730602,81.539728 42.486868,77.618114 40.389756,73.350484 37.720694,69.064004 a 13.392963,13.392963 0 0 0 0.922424,-1.612821 z" /><path
       id="path1"
       style="fill:#67b328;fill-rule:evenodd;stroke:none;stroke-width:0.0255059;stroke-linejoin:round;stroke-dasharray:none"
       d="M 121.83132,66.587561 A 13.392963,13.392963 0 0 1 108.43835,79.980525 13.392963,13.392963 0 0 1 95.045399,66.587561 13.392963,13.392963 0 0 1 108.43835,53.194598 13.392963,13.392963 0 0 1 121.83132,66.587561 Z" /><path
       id="circle1"
       style="fill:#fd4774;fill-rule:evenodd;stroke:none;stroke-width:0.0255059;stroke-linejoin:round;stroke-dasharray:none"
       d="M 90.825467,31.447587 A 13.392963,13.392963 0 0 1 77.432503,44.84055 13.392963,13.392963 0 0 1 64.03954,31.447587 13.392963,13.392963 0 0 1 77.432503,18.054623 13.392963,13.392963 0 0 1 90.825467,31.447587 Z" /><path
       id="circle2"
       style="fill:#fd6b05;fill-rule:evenodd;stroke:none;stroke-width:0.0255059;stroke-linejoin:round;stroke-dasharray:none"
       d="M 39.975857,61.626624 A 13.392963,13.392963 0 0 1 26.582894,75.019587 13.392963,13.392963 0 0 1 13.18993,61.626624 13.392963,13.392963 0 0 1 26.582894,48.23366 13.392963,13.392963 0 0 1 39.975857,61.626624 Z" /><path
       id="circle3"
       style="fill:#7119bb;fill-rule:evenodd;stroke:none;stroke-width:0.0255059;stroke-linejoin:round;stroke-dasharray:none"
       d="M 73.875596,103.3812 A 13.392963,13.392963 0 0 1 60.482632,116.77417 13.392963,13.392963 0 0 1 47.089669,103.3812 13.392963,13.392963 0 0 1 60.482632,89.988215 13.392963,13.392963 0 0 1 73.875596,103.3812 Z" /><path
       style="baseline-shift:baseline;display:inline;overflow:visible;opacity:1;fill:url(#linearGradient5);stroke:none;stroke-width:0.05;stroke-dasharray:none;enable-background:accumulate;stop-color:#000000;stop-opacity:1"
       d="M 75.02578,27.965758 C 58.229214,39.573142 41.453453,49.527049 24.701561,57.834898 l 3.761719,7.583985 c 17.147846,-8.504217 34.271828,-18.669015 51.375,-30.488281 z"
       id="path3" /><path
       style="baseline-shift:baseline;display:inline;overflow:visible;opacity:1;fill:url(#linearGradient8);stroke:none;stroke-width:0.05;stroke-dasharray:none;enable-background:accumulate;stop-color:#000000;stop-opacity:1"
       d="M 106.87929,65.071227 C 84.390538,73.977231 73.224992,91.302752 58.396874,99.696223 l 4.171875,7.369167 C 79.900379,97.254776 90.223047,80.774955 109.99647,72.944273 Z"
       id="path8" /><path
       style="baseline-shift:baseline;display:inline;overflow:visible;opacity:1;fill:url(#linearGradient9);stroke:none;stroke-width:0.05;stroke-dasharray:none;enable-background:accumulate;stop-color:#000000;stop-opacity:1"
       d="m 81.101952,29.336852 -7.337891,4.222656 c 8.562099,14.876946 22.343504,22.73336 31.201159,35.447265 l 6.94727,-4.839843 C 101.75324,49.584791 88.24949,41.75595 81.101952,29.336852 Z"
       id="path9" /><path
       style="baseline-shift:baseline;display:inline;overflow:visible;opacity:1;fill:url(#linearGradient10);stroke:none;stroke-width:0.05;stroke-dasharray:none;enable-background:accumulate;stop-color:#000000;stop-opacity:1"
       d="m 29.576561,58.633727 -5.986328,5.986328 c 6.184459,6.184459 9.404898,13.458913 13.791016,21.125 4.386118,7.666087 10.163619,15.637365 21.136719,21.386745 l 3.929687,-7.500027 C 53.169039,94.770239 48.819675,88.686438 44.730858,81.539977 40.642042,74.393515 37.040126,66.097291 29.576561,58.633727 Z"
       id="path10" /><path
       style="baseline-shift:baseline;display:inline;overflow:visible;opacity:1;fill:url(#linearGradient11);stroke:none;stroke-width:0.05;stroke-dasharray:none;enable-background:accumulate;stop-color:#000000;stop-opacity:1"
       d="m 27.144921,57.430602 -1.125,8.392578 c 25.775929,3.456775 61.157133,7.515413 82.910149,4.96875 l -0.98438,-8.408203 C 88.357579,64.676941 52.74445,60.86372 27.144921,57.430602 Z"
       id="path11" /></g></svg>
